<?xml version="1.0" encoding="utf-8"?>
<!-- Generator: Adobe Illustrator 14.0.0, SVG Export Plug-In . SVG Version: 6.00 Build 43363)  -->
<svg version="1.2" baseProfile="tiny" id="Camada_1"
	 xmlns="http://www.w3.org/2000/svg" xmlns:xlink="http://www.w3.org/1999/xlink" x="0px" y="0px" width="171.074px"
	 height="74.365px" viewBox="0 0 171.074 74.365" xml:space="preserve">
<g>
	<path fill="#003A6F" d="M88.746,44.057h-8.582l-1.54,5.217c-0.273,0.041-0.547,0.072-0.818,0.096
		c-0.271,0.02-0.544,0.03-0.817,0.03c-0.292,0-0.581-0.011-0.864-0.03c-0.281-0.023-0.541-0.055-0.769-0.096l7.355-22.602
		c0.271-0.041,0.566-0.073,0.881-0.093c0.313-0.021,0.638-0.032,0.973-0.032c0.293,0,0.598,0.011,0.912,0.032
		c0.313,0.02,0.619,0.052,0.912,0.093l7.324,22.602c-0.251,0.041-0.534,0.072-0.849,0.096c-0.313,0.02-0.618,0.03-0.911,0.03
		c-0.271,0-0.551-0.011-0.832-0.03c-0.285-0.023-0.553-0.055-0.803-0.096L88.746,44.057z M81.013,41.258h6.885L84.44,29.721
		L81.013,41.258z"/>
	<path fill="#003A6F" d="M94.153,33.147c0.292-0.042,0.596-0.073,0.911-0.095c0.315-0.02,0.598-0.031,0.848-0.031
		c0.273,0,0.572,0.012,0.897,0.031c0.323,0.021,0.603,0.053,0.831,0.095l4.402,13.297l4.433-13.297
		c0.23-0.042,0.492-0.073,0.786-0.095c0.293-0.02,0.575-0.031,0.848-0.031c0.23,0,0.492,0.012,0.787,0.031
		c0.293,0.021,0.587,0.053,0.881,0.095l-6.289,16.126c-0.271,0.041-0.544,0.072-0.816,0.096c-0.272,0.02-0.524,0.03-0.754,0.03
		c-0.232,0-0.478-0.011-0.74-0.03c-0.26-0.023-0.518-0.055-0.77-0.096L94.153,33.147z"/>
	<path fill="#003A6F" d="M121.344,38.648c0-1.235-0.314-2.096-0.943-2.576c-0.628-0.484-1.541-0.725-2.734-0.725
		c-0.733,0-1.421,0.059-2.059,0.174c-0.641,0.115-1.264,0.266-1.871,0.455c-0.396-0.691-0.598-1.52-0.598-2.482
		c0.713-0.232,1.498-0.409,2.357-0.536c0.859-0.124,1.688-0.188,2.484-0.188c2.095,0,3.688,0.477,4.779,1.432
		c1.088,0.953,1.632,2.477,1.632,4.574v10.09c-0.732,0.168-1.622,0.34-2.669,0.52c-1.051,0.178-2.119,0.268-3.208,0.268
		c-1.028,0-1.954-0.096-2.782-0.283c-0.828-0.189-1.529-0.494-2.105-0.913s-1.022-0.954-1.337-1.603
		c-0.313-0.65-0.472-1.437-0.472-2.357c0-0.9,0.184-1.694,0.551-2.375c0.366-0.68,0.865-1.246,1.493-1.697
		c0.628-0.45,1.353-0.785,2.169-1.004c0.818-0.223,1.678-0.332,2.578-0.332c0.67,0,1.221,0.016,1.649,0.049
		c0.429,0.03,0.792,0.066,1.085,0.11V38.648z M121.344,41.697c-0.314-0.041-0.713-0.083-1.195-0.125
		c-0.48-0.043-0.891-0.063-1.226-0.063c-1.3,0-2.289,0.241-2.971,0.723c-0.681,0.481-1.022,1.217-1.022,2.201
		c0,0.628,0.115,1.122,0.348,1.478c0.23,0.355,0.519,0.629,0.865,0.816c0.344,0.189,0.727,0.305,1.146,0.346
		c0.42,0.043,0.817,0.064,1.194,0.064c0.481,0,0.98-0.025,1.493-0.079c0.514-0.052,0.969-0.13,1.367-0.236V41.697z"/>
	<g>
		<linearGradient id="SVGID_1_" gradientUnits="userSpaceOnUse" x1="2.2622" y1="28.4521" x2="66.5642" y2="51.8561">
			<stop  offset="0" style="stop-color:#1F82C0"/>
			<stop  offset="0.4254" style="stop-color:#005B94"/>
			<stop  offset="0.8021" style="stop-color:#004278"/>
			<stop  offset="1" style="stop-color:#003A6F"/>
		</linearGradient>
		<path fill="url(#SVGID_1_)" d="M34.413,74.365c-18.865,0-34.211-15.348-34.211-34.211S15.547,5.943,34.413,5.943
			s34.213,15.348,34.213,34.211S53.278,74.365,34.413,74.365L34.413,74.365z M34.413,8.958c-17.202,0-31.195,13.993-31.195,31.196
			c0,17.201,13.993,31.196,31.195,31.196c17.202,0,31.195-13.995,31.195-31.196C65.608,22.951,51.615,8.958,34.413,8.958
			L34.413,8.958z"/>
	</g>
	<path fill="#003A6F" d="M129.673,35.629h-2.45l-0.125-0.439l5.405-6.035h0.251v3.993h4.087c0.084,0.355,0.127,0.755,0.127,1.194
		c0,0.23-0.013,0.451-0.032,0.66c-0.021,0.209-0.053,0.42-0.095,0.627h-4.087v7.357c0,0.88,0.036,1.582,0.109,2.106
		c0.074,0.523,0.199,0.929,0.379,1.21c0.176,0.283,0.418,0.472,0.723,0.566c0.303,0.095,0.688,0.142,1.147,0.142
		c0.356,0,0.692-0.025,1.006-0.079c0.315-0.053,0.596-0.11,0.85-0.174c0.146,0.42,0.233,0.85,0.266,1.291
		c0.03,0.438,0.047,0.826,0.047,1.164c-0.419,0.102-0.858,0.182-1.319,0.234s-0.954,0.078-1.479,0.078
		c-1.508,0-2.688-0.367-3.535-1.102c-0.848-0.732-1.274-1.947-1.274-3.645V35.629z"/>
	<path fill="#003A6F" d="M142.656,41.98c0.042,1.76,0.499,3.049,1.367,3.868c0.868,0.816,2.153,1.224,3.852,1.224
		c1.488,0,2.902-0.26,4.244-0.787c0.168,0.316,0.305,0.7,0.408,1.148c0.105,0.452,0.167,0.896,0.189,1.336
		c-0.693,0.296-1.453,0.514-2.279,0.66c-0.829,0.147-1.745,0.223-2.751,0.223c-1.467,0-2.726-0.205-3.772-0.615
		c-1.049-0.407-1.913-0.984-2.593-1.729c-0.683-0.742-1.181-1.624-1.493-2.641c-0.314-1.017-0.473-2.133-0.473-3.348
		c0-1.195,0.152-2.31,0.456-3.346c0.304-1.039,0.771-1.94,1.399-2.705c0.627-0.766,1.418-1.373,2.373-1.824
		c0.953-0.449,2.078-0.676,3.379-0.676c1.111,0,2.086,0.188,2.924,0.566c0.838,0.377,1.54,0.896,2.106,1.555
		c0.565,0.66,0.995,1.447,1.289,2.359c0.292,0.912,0.438,1.9,0.438,2.97c0,0.295-0.01,0.604-0.031,0.929
		c-0.02,0.324-0.041,0.602-0.062,0.832H142.656z M150.641,39.654c0-0.586-0.077-1.147-0.234-1.68
		c-0.159-0.536-0.389-1.004-0.693-1.402c-0.303-0.396-0.691-0.715-1.162-0.957c-0.472-0.24-1.031-0.362-1.682-0.362
		c-1.279,0-2.258,0.389-2.939,1.163c-0.682,0.776-1.096,1.854-1.242,3.238H150.641z"/>
	<path fill="#003A6F" d="M157.682,26.232c0.23-0.042,0.488-0.073,0.771-0.093c0.283-0.021,0.538-0.032,0.77-0.032
		c0.23,0,0.491,0.011,0.787,0.032c0.292,0.02,0.554,0.051,0.783,0.093v23.042c-0.229,0.041-0.491,0.072-0.783,0.096
		c-0.296,0.02-0.557,0.03-0.787,0.03c-0.231,0-0.486-0.011-0.77-0.03c-0.283-0.023-0.541-0.055-0.771-0.096V26.232z M161.643,40.912
		l5.125-7.765c0.271-0.042,0.543-0.073,0.816-0.095c0.273-0.02,0.555-0.031,0.85-0.031c0.314,0,0.613,0.012,0.896,0.031
		c0.283,0.021,0.571,0.053,0.866,0.095l-5.125,7.544l6.004,8.582c-0.295,0.041-0.576,0.072-0.848,0.096
		c-0.273,0.02-0.557,0.03-0.85,0.03c-0.295,0-0.589-0.011-0.881-0.03c-0.295-0.023-0.587-0.055-0.881-0.096L161.643,40.912z"/>
	<path fill="#F08A00" d="M82.138,59.069c0,0-31.491,1.648-53.984-16.397l5.56-12.484l9.09,20.369
		c3.922,1.665,5.926,2.455,10.13,3.647L37.981,20.667h-0.025h-8.48H29.45l-7.358,16.515C2.483,17.729,0,0,0,0
		s3.088,23.535,20.337,41.123l-0.039,0.082l-6.494,14.578h8.506l4.091-9.176l0.02-0.047C38.673,56.133,56.444,62.426,82.138,59.069z
		"/>
</g>
</svg>
