<?xml version="1.0" standalone="no"?>
<!DOCTYPE svg PUBLIC "-//W3C//DTD SVG 20010904//EN"
 "http://www.w3.org/TR/2001/REC-SVG-20010904/DTD/svg10.dtd">
<svg version="1.0" xmlns="http://www.w3.org/2000/svg"
 width="417.000000pt" height="362.000000pt" viewBox="0 0 417.000000 362.000000"
 preserveAspectRatio="xMidYMid meet">

<g transform="translate(0.000000,362.000000) scale(0.100000,-0.100000)"
fill="#000000" stroke="none">
<path d="M1160 3085 l0 -145 35 0 c33 0 35 -2 35 -35 0 -33 -2 -35 -35 -35
l-35 0 0 -75 0 -75 35 0 c33 0 35 -2 35 -35 0 -33 2 -35 35 -35 33 0 35 -2 35
-35 l0 -35 -105 0 -105 0 0 35 0 35 -110 0 -110 0 0 -75 0 -75 70 0 70 0 0
-35 c0 -34 1 -35 40 -35 39 0 40 -1 40 -35 l0 -35 -75 0 -75 0 0 35 0 35 -70
0 -70 0 0 -35 c0 -33 2 -35 35 -35 33 0 35 -2 35 -35 l0 -35 -110 0 -110 0 0
70 0 70 35 0 c33 0 35 2 35 35 0 34 1 35 40 35 l40 0 0 40 0 40 -40 0 c-39 0
-40 1 -40 35 l0 35 -70 0 -70 0 0 -35 0 -35 70 0 70 0 0 -40 c0 -39 -1 -40
-35 -40 -33 0 -35 -2 -35 -35 0 -33 -2 -35 -35 -35 l-35 0 0 -70 0 -70 35 0
35 0 0 -110 0 -110 -35 0 -35 0 0 -145 0 -145 70 0 70 0 0 40 0 40 40 0 40 0
0 70 0 70 35 0 35 0 0 -70 0 -70 35 0 c33 0 35 2 35 35 0 33 2 35 35 35 33 0
35 -2 35 -35 l0 -35 75 0 75 0 0 -40 0 -40 -110 0 -110 0 0 -35 0 -35 75 0 75
0 0 -35 0 -35 -75 0 -75 0 0 -35 0 -35 110 0 110 0 0 -40 0 -40 70 0 70 0 0
40 c0 39 1 40 35 40 34 0 35 -1 35 -40 l0 -40 40 0 c39 0 40 -1 40 -35 0 -34
-1 -35 -40 -35 -39 0 -40 -1 -40 -35 0 -33 -2 -35 -35 -35 -33 0 -35 2 -35 35
l0 35 -105 0 -105 0 0 35 c0 34 -1 35 -40 35 -39 0 -40 -1 -40 -35 0 -34 1
-35 40 -35 39 0 40 -1 40 -35 0 -34 -1 -35 -40 -35 -39 0 -40 -1 -40 -35 l0
-35 75 0 75 0 0 -75 0 -75 -35 0 c-34 0 -35 1 -35 40 l0 40 -40 0 -40 0 0 -40
0 -40 40 0 c39 0 40 -1 40 -35 l0 -35 -75 0 -75 0 0 -35 c0 -33 -2 -35 -35
-35 l-35 0 0 70 0 70 35 0 35 0 0 75 0 75 -180 0 -180 0 0 -110 0 -110 110 0
110 0 0 -35 c0 -34 -1 -35 -40 -35 -39 0 -40 -1 -40 -35 l0 -35 -70 0 -70 0 0
-35 0 -35 180 0 180 0 0 35 c0 33 2 35 35 35 33 0 35 -2 35 -35 l0 -35 75 0
75 0 0 -40 0 -40 70 0 70 0 0 -105 0 -105 -35 0 -35 0 0 70 0 70 -35 0 -35 0
0 -70 0 -70 35 0 35 0 0 -75 0 -75 -35 0 -35 0 0 -70 0 -70 35 0 35 0 0 70 0
70 35 0 c33 0 35 2 35 35 0 33 2 35 35 35 l35 0 0 -70 0 -70 -35 0 c-33 0 -35
-2 -35 -35 0 -33 2 -35 35 -35 33 0 35 2 35 35 0 34 1 35 40 35 39 0 40 1 40
35 l0 35 105 0 105 0 0 -35 c0 -33 -2 -35 -35 -35 -33 0 -35 -2 -35 -35 0 -33
2 -35 35 -35 33 0 35 2 35 35 l0 35 75 0 75 0 0 -35 0 -35 215 0 215 0 0 70 0
70 35 0 35 0 0 -70 0 -70 35 0 c33 0 35 2 35 35 0 34 1 35 40 35 39 0 40 1 40
35 0 33 2 35 35 35 33 0 35 2 35 35 0 33 2 35 35 35 33 0 35 -2 35 -35 0 -33
2 -35 35 -35 l35 0 0 -70 0 -70 35 0 c33 0 35 2 35 35 l0 35 75 0 75 0 0 -35
c0 -33 2 -35 35 -35 33 0 35 2 35 35 0 33 -2 35 -35 35 l-35 0 0 70 0 70 -110
0 -110 0 0 40 c0 39 1 40 35 40 33 0 35 2 35 35 0 34 1 35 40 35 39 0 40 -1
40 -35 l0 -35 215 0 215 0 0 -40 c0 -39 1 -40 35 -40 33 0 35 -2 35 -35 l0
-35 110 0 110 0 0 35 c0 33 -2 35 -35 35 -34 0 -35 1 -35 40 l0 40 -75 0 -75
0 0 35 0 35 75 0 75 0 0 35 c0 33 2 35 35 35 l35 0 0 110 0 110 -35 0 c-33 0
-35 2 -35 35 0 33 2 35 35 35 33 0 35 2 35 35 0 33 -2 35 -35 35 -33 0 -35 -2
-35 -35 0 -34 -1 -35 -40 -35 l-40 0 0 110 0 110 40 0 c39 0 40 1 40 35 0 34
-1 35 -40 35 l-40 0 0 70 0 70 40 0 40 0 0 145 0 145 -40 0 c-39 0 -40 1 -40
35 0 34 1 35 40 35 l40 0 0 40 c0 39 1 40 35 40 l35 0 0 70 0 70 -35 0 c-33 0
-35 2 -35 35 0 34 -1 35 -40 35 -39 0 -40 -1 -40 -35 0 -33 -2 -35 -35 -35
l-35 0 0 -70 0 -70 35 0 c34 0 35 -1 35 -40 0 -39 -1 -40 -35 -40 l-35 0 0
-105 0 -105 -35 0 -35 0 0 70 0 70 -35 0 c-33 0 -35 -2 -35 -35 l0 -35 -75 0
-75 0 0 35 c0 33 -2 35 -35 35 -33 0 -35 2 -35 35 0 33 2 35 35 35 34 0 35 1
35 40 0 39 1 40 35 40 l35 0 0 70 0 70 40 0 c39 0 40 1 40 35 0 34 -1 35 -40
35 -39 0 -40 -1 -40 -35 0 -33 -2 -35 -35 -35 l-35 0 0 -70 0 -70 -70 0 -70 0
0 35 c0 33 2 35 35 35 33 0 35 2 35 35 0 33 -2 35 -35 35 l-35 0 0 145 0 145
70 0 70 0 0 -35 c0 -33 -2 -35 -35 -35 l-35 0 0 -75 0 -75 35 0 c33 0 35 2 35
35 l0 35 220 0 220 0 0 40 c0 39 1 40 35 40 33 0 35 2 35 35 0 33 -2 35 -35
35 -33 0 -35 2 -35 35 0 34 -1 35 -40 35 -39 0 -40 -1 -40 -35 0 -33 -2 -35
-35 -35 -33 0 -35 2 -35 35 l0 35 -110 0 -110 0 0 -35 c0 -33 -2 -35 -35 -35
-33 0 -35 2 -35 35 0 33 -2 35 -35 35 -33 0 -35 2 -35 35 l0 35 -70 0 -70 0 0
35 c0 33 2 35 35 35 l35 0 0 110 0 110 35 0 35 0 0 110 0 110 -35 0 c-33 0
-35 -2 -35 -35 0 -33 -2 -35 -35 -35 -33 0 -35 2 -35 35 0 34 -1 35 -40 35
-39 0 -40 1 -40 35 l0 35 110 0 110 0 0 35 c0 33 -2 35 -35 35 -33 0 -35 2
-35 35 0 33 2 35 35 35 34 0 35 1 35 40 0 39 -1 40 -35 40 -34 0 -35 -1 -35
-40 0 -39 -1 -40 -35 -40 -34 0 -35 1 -35 40 l0 40 -40 0 -40 0 0 -40 c0 -39
-1 -40 -35 -40 -33 0 -35 -2 -35 -35 0 -33 -2 -35 -35 -35 -33 0 -35 -2 -35
-35 0 -33 -2 -35 -35 -35 -33 0 -35 -2 -35 -35 0 -33 -2 -35 -35 -35 -33 0
-35 2 -35 35 0 34 -1 35 -40 35 -39 0 -40 1 -40 35 0 33 -2 35 -35 35 -33 0
-35 -2 -35 -35 0 -33 -2 -35 -35 -35 -33 0 -35 -2 -35 -35 0 -33 -2 -35 -35
-35 -33 0 -35 2 -35 35 l0 35 -75 0 -75 0 0 35 0 35 110 0 110 0 0 35 c0 33 2
35 35 35 34 0 35 1 35 40 0 39 -1 40 -35 40 -34 0 -35 -1 -35 -40 l0 -40 -70
0 -70 0 0 40 0 40 -40 0 -40 0 0 -40 c0 -39 -1 -40 -35 -40 -34 0 -35 1 -35
40 l0 40 -70 0 -70 0 0 -75 0 -75 -40 0 c-39 0 -40 -1 -40 -35 l0 -35 -70 0
-70 0 0 35 0 35 -110 0 -110 0 0 -35 c0 -34 1 -35 40 -35 39 0 40 -1 40 -35
l0 -35 -110 0 -110 0 0 35 c0 33 2 35 35 35 l35 0 0 70 0 70 35 0 c34 0 35 1
35 40 l0 40 -105 0 -105 0 0 -145z m790 -5 l0 -70 35 0 c33 0 35 -2 35 -35 0
-33 -2 -35 -35 -35 -33 0 -35 2 -35 35 l0 35 -70 0 -70 0 0 -35 c0 -33 2 -35
35 -35 33 0 35 -2 35 -35 0 -33 2 -35 35 -35 34 0 35 -1 35 -40 0 -39 1 -40
35 -40 34 0 35 1 35 40 l0 40 40 0 c39 0 40 1 40 35 0 33 2 35 35 35 33 0 35
-2 35 -35 0 -33 -2 -35 -35 -35 -34 0 -35 -1 -35 -40 0 -39 1 -40 35 -40 33 0
35 -2 35 -35 0 -33 -2 -35 -35 -35 -33 0 -35 -2 -35 -35 l0 -35 140 0 140 0 0
-35 c0 -33 -2 -35 -35 -35 -34 0 -35 -1 -35 -40 0 -39 1 -40 35 -40 33 0 35
-2 35 -35 l0 -35 75 0 75 0 0 35 c0 33 2 35 35 35 34 0 35 1 35 40 l0 40 -70
0 -70 0 0 70 0 70 -40 0 c-39 0 -40 1 -40 35 0 33 -2 35 -35 35 -33 0 -35 -2
-35 -35 0 -33 -2 -35 -35 -35 -33 0 -35 2 -35 35 0 33 2 35 35 35 34 0 35 1
35 40 0 39 -1 40 -35 40 -33 0 -35 2 -35 35 l0 35 70 0 70 0 0 -35 c0 -34 1
-35 40 -35 l40 0 0 -75 0 -75 35 0 c33 0 35 2 35 35 0 33 2 35 35 35 l35 0 0
-105 0 -105 70 0 70 0 0 -75 0 -75 40 0 c39 0 40 -1 40 -35 0 -34 -1 -35 -40
-35 -39 0 -40 -1 -40 -35 0 -34 1 -35 40 -35 l40 0 0 -75 0 -75 -40 0 c-39 0
-40 -1 -40 -35 0 -33 -2 -35 -35 -35 l-35 0 0 75 0 75 -35 0 c-33 0 -35 2 -35
35 0 33 -2 35 -35 35 l-35 0 0 -75 0 -75 35 0 35 0 0 -105 0 -105 -35 0 -35 0
0 70 0 70 -35 0 c-33 0 -35 -2 -35 -35 0 -34 -1 -35 -40 -35 l-40 0 0 70 0 70
40 0 40 0 0 75 0 75 35 0 c33 0 35 2 35 35 l0 35 -75 0 -75 0 0 -70 0 -70 -35
0 -35 0 0 -110 0 -110 -35 0 -35 0 0 -70 0 -70 35 0 c33 0 35 2 35 35 0 33 2
35 35 35 33 0 35 -2 35 -35 0 -34 1 -35 40 -35 l40 0 0 -40 0 -40 70 0 70 0 0
40 c0 39 1 40 35 40 l35 0 0 70 0 70 35 0 35 0 0 -70 0 -70 -35 0 -35 0 0 -75
0 -75 110 0 110 0 0 -35 0 -35 70 0 70 0 0 -35 c0 -33 2 -35 35 -35 34 0 35
-1 35 -40 l0 -40 40 0 40 0 0 40 c0 39 1 40 35 40 34 0 35 -1 35 -40 0 -39 1
-40 35 -40 34 0 35 1 35 40 0 39 1 40 35 40 34 0 35 -1 35 -40 0 -39 -1 -40
-35 -40 l-35 0 0 -70 0 -70 -70 0 -70 0 0 -35 0 -35 105 0 105 0 0 -35 0 -35
-70 0 -70 0 0 -40 c0 -39 1 -40 35 -40 33 0 35 -2 35 -35 l0 -35 -70 0 -70 0
0 -35 0 -35 105 0 105 0 0 -35 c0 -34 1 -35 40 -35 l40 0 0 -75 0 -75 -40 0
-40 0 0 40 c0 39 -1 40 -35 40 l-35 0 0 -75 0 -75 -35 0 -35 0 0 75 0 75 35 0
c33 0 35 2 35 35 l0 35 -70 0 -70 0 0 35 c0 34 -1 35 -40 35 -39 0 -40 -1 -40
-35 0 -33 -2 -35 -35 -35 -33 0 -35 2 -35 35 l0 35 -70 0 -70 0 0 35 0 35
-110 0 -110 0 0 -70 0 -70 35 0 c33 0 35 2 35 35 0 34 1 35 40 35 39 0 40 -1
40 -35 0 -34 -1 -35 -40 -35 -39 0 -40 -1 -40 -35 0 -34 1 -35 40 -35 l40 0 0
-40 0 -40 -40 0 c-39 0 -40 -1 -40 -35 0 -33 -2 -35 -35 -35 -33 0 -35 -2 -35
-35 0 -33 -2 -35 -35 -35 -33 0 -35 -2 -35 -35 l0 -35 -70 0 -70 0 0 35 c0 34
-1 35 -40 35 l-40 0 0 -110 0 -110 -35 0 c-33 0 -35 2 -35 35 l0 35 -70 0 -70
0 0 -70 0 -70 -110 0 -110 0 0 35 c0 33 -2 35 -35 35 -33 0 -35 -2 -35 -35 0
-33 -2 -35 -35 -35 -33 0 -35 2 -35 35 0 34 -1 35 -40 35 -39 0 -40 1 -40 35
0 33 -2 35 -35 35 -34 0 -35 1 -35 40 0 39 -1 40 -35 40 l-35 0 0 70 0 70 70
0 70 0 0 -70 0 -70 40 0 40 0 0 105 0 105 -40 0 -40 0 0 75 0 75 -35 0 c-33 0
-35 -2 -35 -35 0 -33 -2 -35 -35 -35 -34 0 -35 -1 -35 -40 0 -39 -1 -40 -35
-40 l-35 0 0 -105 0 -105 -35 0 c-34 0 -35 -1 -35 -40 l0 -40 -40 0 -40 0 0
110 0 110 40 0 c39 0 40 1 40 35 0 33 2 35 35 35 l35 0 0 75 0 75 35 0 c33 0
35 2 35 35 0 33 2 35 35 35 33 0 35 2 35 35 0 33 -2 35 -35 35 -33 0 -35 2
-35 35 0 33 2 35 35 35 l35 0 0 75 0 75 -35 0 c-33 0 -35 -2 -35 -35 l0 -35
-70 0 -70 0 0 -40 c0 -39 1 -40 35 -40 l35 0 0 -70 0 -70 -35 0 c-33 0 -35 -2
-35 -35 l0 -35 -110 0 -110 0 0 -35 c0 -33 -2 -35 -35 -35 -33 0 -35 2 -35 35
0 33 2 35 35 35 33 0 35 2 35 35 l0 35 70 0 70 0 0 35 c0 33 -2 35 -35 35 -33
0 -35 2 -35 35 0 33 -2 35 -35 35 -33 0 -35 -2 -35 -35 0 -33 -2 -35 -35 -35
-33 0 -35 -2 -35 -35 0 -33 -2 -35 -35 -35 -33 0 -35 -2 -35 -35 0 -34 -1 -35
-40 -35 -39 0 -40 1 -40 35 0 34 1 35 40 35 39 0 40 1 40 35 0 33 2 35 35 35
33 0 35 2 35 35 0 33 2 35 35 35 34 0 35 1 35 40 l0 40 70 0 70 0 0 70 0 70
40 0 c39 0 40 -1 40 -35 0 -33 2 -35 35 -35 33 0 35 2 35 35 0 33 2 35 35 35
l35 0 0 110 0 110 35 0 c34 0 35 -1 35 -40 0 -39 1 -40 35 -40 33 0 35 -2 35
-35 0 -33 -2 -35 -35 -35 l-35 0 0 -70 0 -70 35 0 c33 0 35 2 35 35 0 34 1 35
40 35 39 0 40 1 40 35 l0 35 105 0 105 0 0 -70 0 -70 -70 0 -70 0 0 35 c0 33
-2 35 -35 35 -33 0 -35 -2 -35 -35 0 -34 -1 -35 -40 -35 -39 0 -40 -1 -40 -35
l0 -35 75 0 75 0 0 -40 c0 -39 1 -40 35 -40 l35 0 0 -105 0 -105 35 0 35 0 0
-75 0 -75 110 0 110 0 0 -35 c0 -33 2 -35 35 -35 33 0 35 2 35 35 0 33 2 35
35 35 33 0 35 -2 35 -35 0 -34 1 -35 40 -35 39 0 40 -1 40 -35 l0 -35 70 0 70
0 0 35 c0 33 2 35 35 35 33 0 35 2 35 35 l0 35 -70 0 -70 0 0 110 0 110 35 0
35 0 0 70 0 70 -35 0 c-33 0 -35 -2 -35 -35 0 -33 -2 -35 -35 -35 -33 0 -35 2
-35 35 0 33 2 35 35 35 34 0 35 1 35 40 l0 40 -75 0 -75 0 0 -40 0 -40 -105 0
-105 0 0 -35 0 -35 105 0 105 0 0 -35 c0 -34 1 -35 40 -35 39 0 40 -1 40 -35
0 -34 -1 -35 -40 -35 -39 0 -40 1 -40 35 0 33 -2 35 -35 35 l-35 0 0 -70 0
-70 -70 0 -70 0 0 35 c0 33 -2 35 -35 35 -33 0 -35 2 -35 35 0 34 -1 35 -40
35 l-40 0 0 70 0 70 40 0 40 0 0 40 c0 39 1 40 35 40 33 0 35 2 35 35 0 33 2
35 35 35 33 0 35 2 35 35 0 33 2 35 35 35 33 0 35 -2 35 -35 l0 -35 110 0 110
0 0 -35 c0 -33 2 -35 35 -35 l35 0 0 70 0 70 -70 0 -70 0 0 35 c0 33 2 35 35
35 33 0 35 2 35 35 l0 35 -110 0 -110 0 0 -35 c0 -33 -2 -35 -35 -35 l-35 0 0
75 0 75 -70 0 -70 0 0 -40 c0 -39 1 -40 35 -40 l35 0 0 -70 0 -70 -35 0 -35 0
0 70 0 70 -110 0 -110 0 0 40 0 40 -75 0 -75 0 0 35 c0 33 -2 35 -35 35 -33 0
-35 2 -35 35 0 33 -2 35 -35 35 l-35 0 0 75 0 75 70 0 70 0 0 105 0 105 -70 0
-70 0 0 -70 0 -70 -35 0 -35 0 0 -110 0 -110 -35 0 c-33 0 -35 -2 -35 -35 0
-34 -1 -35 -40 -35 -39 0 -40 1 -40 35 0 33 -2 35 -35 35 l-35 0 0 -70 0 -70
-35 0 -35 0 0 70 0 70 -35 0 c-33 0 -35 2 -35 35 l0 35 105 0 105 0 0 40 0 40
40 0 c39 0 40 1 40 35 0 33 2 35 35 35 l35 0 0 105 0 105 -35 0 c-33 0 -35 -2
-35 -35 l0 -35 -75 0 -75 0 0 -35 c0 -33 -2 -35 -35 -35 -33 0 -35 2 -35 35
l0 35 -110 0 -110 0 0 -35 0 -35 75 0 75 0 0 -35 0 -35 -75 0 -75 0 0 35 c0
33 -2 35 -35 35 -33 0 -35 2 -35 35 0 33 2 35 35 35 33 0 35 2 35 35 0 34 1
35 40 35 l40 0 0 40 0 40 -110 0 -110 0 0 -75 0 -75 -75 0 -75 0 0 -35 c0 -33
-2 -35 -35 -35 -33 0 -35 2 -35 35 0 33 2 35 35 35 33 0 35 2 35 35 0 34 1 35
40 35 l40 0 0 40 c0 39 1 40 35 40 33 0 35 2 35 35 l0 35 110 0 110 0 0 35 c0
33 2 35 35 35 33 0 35 2 35 35 0 33 -2 35 -35 35 -33 0 -35 2 -35 35 0 34 -1
35 -40 35 l-40 0 0 40 0 40 40 0 40 0 0 -40 c0 -39 1 -40 35 -40 33 0 35 -2
35 -35 0 -33 2 -35 35 -35 33 0 35 2 35 35 l0 35 70 0 70 0 0 40 0 40 40 0
c39 0 40 1 40 35 l0 35 -75 0 -75 0 0 35 c0 33 -2 35 -35 35 l-35 0 0 75 0 75
70 0 70 0 0 -40 0 -40 40 0 40 0 0 -70 0 -70 35 0 35 0 0 -75 0 -75 70 0 70 0
0 40 c0 39 -1 40 -35 40 l-35 0 0 70 0 70 -35 0 -35 0 0 75 0 75 -35 0 c-33 0
-35 2 -35 35 0 33 2 35 35 35 33 0 35 2 35 35 0 33 2 35 35 35 33 0 35 -2 35
-35 0 -33 -2 -35 -35 -35 -33 0 -35 -2 -35 -35 0 -33 2 -35 35 -35 l35 0 0
-75 0 -75 35 0 35 0 0 110 0 110 35 0 c33 0 35 2 35 35 0 34 1 35 40 35 39 0
40 1 40 35 0 33 2 35 35 35 33 0 35 2 35 35 0 33 2 35 35 35 l35 0 0 -70z
m870 35 c0 -34 -1 -35 -40 -35 -39 0 -40 1 -40 35 0 34 1 35 40 35 39 0 40 -1
40 -35z m-80 -210 l0 -35 -70 0 -70 0 0 35 0 35 70 0 70 0 0 -35z m0 -150 c0
-34 1 -35 40 -35 39 0 40 1 40 35 0 33 2 35 35 35 33 0 35 -2 35 -35 0 -33 -2
-35 -35 -35 -33 0 -35 -2 -35 -35 0 -34 -1 -35 -40 -35 -39 0 -40 1 -40 35 0
33 -2 35 -35 35 -33 0 -35 2 -35 35 0 33 2 35 35 35 33 0 35 -2 35 -35z m440
-500 c0 -34 -1 -35 -40 -35 -39 0 -40 1 -40 35 0 34 1 35 40 35 39 0 40 -1 40
-35z m140 0 c0 -33 -2 -35 -35 -35 -33 0 -35 2 -35 35 0 33 2 35 35 35 33 0
35 -2 35 -35z m150 -290 c0 -34 -1 -35 -40 -35 -39 0 -40 1 -40 35 0 34 1 35
40 35 39 0 40 -1 40 -35z m-2750 -70 c0 -33 -2 -35 -35 -35 -33 0 -35 2 -35
35 0 33 2 35 35 35 33 0 35 -2 35 -35z m580 0 c0 -33 -2 -35 -35 -35 -33 0
-35 2 -35 35 0 33 2 35 35 35 33 0 35 -2 35 -35z m220 -365 c0 -39 -1 -40 -35
-40 -34 0 -35 1 -35 40 0 39 1 40 35 40 34 0 35 -1 35 -40z m-220 -215 l0 -35
-70 0 -70 0 0 35 0 35 70 0 70 0 0 -35z m-430 -360 c0 -33 -2 -35 -35 -35 -33
0 -35 2 -35 35 0 33 2 35 35 35 33 0 35 -2 35 -35z m500 -145 c0 -39 -1 -40
-35 -40 -34 0 -35 1 -35 40 0 39 1 40 35 40 34 0 35 -1 35 -40z m1810 -70 l0
-110 -110 0 -110 0 0 110 0 110 110 0 110 0 0 -110z m-290 -75 c0 -33 -2 -35
-35 -35 -33 0 -35 2 -35 35 0 33 2 35 35 35 33 0 35 -2 35 -35z"/>
<path d="M1730 2795 l0 -75 -35 0 c-33 0 -35 -2 -35 -35 l0 -35 75 0 75 0 0
70 0 70 35 0 c33 0 35 -2 35 -35 0 -33 2 -35 35 -35 33 0 35 2 35 35 0 33 -2
35 -35 35 -34 0 -35 1 -35 40 l0 40 -75 0 -75 0 0 -75z"/>
<path d="M1300 2755 c0 -33 2 -35 35 -35 33 0 35 2 35 35 0 33 -2 35 -35 35
-33 0 -35 -2 -35 -35z"/>
<path d="M2020 2755 c0 -34 1 -35 40 -35 39 0 40 1 40 35 0 34 -1 35 -40 35
-39 0 -40 -1 -40 -35z"/>
<path d="M1950 2540 l0 -110 -35 0 c-33 0 -35 2 -35 35 0 33 -2 35 -35 35 -34
0 -35 1 -35 40 l0 40 -40 0 -40 0 0 -40 c0 -39 -1 -40 -35 -40 -33 0 -35 -2
-35 -35 0 -33 -2 -35 -35 -35 -33 0 -35 -2 -35 -35 l0 -35 -70 0 -70 0 0 35
c0 33 2 35 35 35 33 0 35 2 35 35 0 33 -2 35 -35 35 -33 0 -35 -2 -35 -35 0
-34 -1 -35 -40 -35 l-40 0 0 -70 0 -70 75 0 75 0 0 -75 0 -75 35 0 35 0 0 75
0 75 35 0 35 0 0 70 0 70 35 0 c33 0 35 -2 35 -35 l0 -35 75 0 75 0 0 -35 c0
-33 2 -35 35 -35 33 0 35 -2 35 -35 0 -33 -2 -35 -35 -35 -34 0 -35 -1 -35
-40 0 -39 -1 -40 -35 -40 l-35 0 0 75 0 75 -40 0 -40 0 0 -75 0 -75 40 0 40 0
0 -105 0 -105 35 0 c33 0 35 -2 35 -35 0 -33 2 -35 35 -35 l35 0 0 -75 0 -75
-35 0 -35 0 0 -70 0 -70 35 0 c33 0 35 2 35 35 0 33 2 35 35 35 33 0 35 -2 35
-35 0 -34 1 -35 40 -35 l40 0 0 70 0 70 -40 0 -40 0 0 75 0 75 -35 0 c-33 0
-35 2 -35 35 0 33 -2 35 -35 35 -33 0 -35 2 -35 35 0 33 2 35 35 35 33 0 35 2
35 35 0 33 2 35 35 35 l35 0 0 -70 0 -70 75 0 75 0 0 35 c0 33 2 35 35 35 33
0 35 2 35 35 0 33 -2 35 -35 35 -33 0 -35 2 -35 35 l0 35 -75 0 -75 0 0 75 0
75 40 0 c39 0 40 1 40 35 l0 35 70 0 70 0 0 35 c0 33 2 35 35 35 33 0 35 -2
35 -35 0 -33 2 -35 35 -35 33 0 35 2 35 35 0 33 -2 35 -35 35 -33 0 -35 2 -35
35 0 33 -2 35 -35 35 -34 0 -35 1 -35 40 0 39 -1 40 -35 40 -34 0 -35 -1 -35
-40 0 -39 -1 -40 -35 -40 l-35 0 0 -70 0 -70 -40 0 -40 0 0 110 0 110 40 0
c39 0 40 1 40 35 l0 35 -75 0 -75 0 0 -110z m-140 -75 c0 -34 -1 -35 -40 -35
-39 0 -40 1 -40 35 0 34 1 35 40 35 39 0 40 -1 40 -35z m140 -360 c0 -33 -2
-35 -35 -35 -33 0 -35 2 -35 35 0 33 2 35 35 35 33 0 35 -2 35 -35z m220 -70
c0 -33 -2 -35 -35 -35 -33 0 -35 2 -35 35 0 33 2 35 35 35 33 0 35 -2 35 -35z"/>
<path d="M2600 2465 c0 -33 -2 -35 -35 -35 -33 0 -35 -2 -35 -35 0 -33 2 -35
35 -35 33 0 35 2 35 35 0 33 2 35 35 35 33 0 35 -2 35 -35 0 -33 2 -35 35 -35
33 0 35 2 35 35 0 33 -2 35 -35 35 -33 0 -35 2 -35 35 0 33 -2 35 -35 35 -33
0 -35 -2 -35 -35z"/>
<path d="M1160 2250 l0 -110 35 0 c33 0 35 -2 35 -35 0 -33 2 -35 35 -35 33 0
35 2 35 35 0 33 2 35 35 35 34 0 35 1 35 40 0 39 -1 40 -35 40 l-35 0 0 70 0
70 -70 0 -70 0 0 -110z"/>
<path d="M1730 1785 l0 -75 40 0 40 0 0 75 0 75 -40 0 -40 0 0 -75z"/>
<path d="M2170 1785 l0 -75 35 0 35 0 0 -70 0 -70 35 0 c33 0 35 2 35 35 0 33
2 35 35 35 33 0 35 -2 35 -35 l0 -35 145 0 145 0 0 -75 0 -75 -35 0 c-33 0
-35 -2 -35 -35 0 -33 2 -35 35 -35 33 0 35 2 35 35 0 33 2 35 35 35 l35 0 0
-70 0 -70 -35 0 -35 0 0 -75 0 -75 110 0 110 0 0 -35 c0 -33 2 -35 35 -35 33
0 35 2 35 35 0 33 2 35 35 35 34 0 35 1 35 40 0 39 -1 40 -35 40 l-35 0 0 70
0 70 35 0 c33 0 35 -2 35 -35 0 -33 2 -35 35 -35 33 0 35 -2 35 -35 0 -34 1
-35 40 -35 39 0 40 1 40 35 0 34 -1 35 -40 35 l-40 0 0 70 0 70 -70 0 -70 0 0
35 c0 33 2 35 35 35 34 0 35 1 35 40 0 39 -1 40 -35 40 -34 0 -35 -1 -35 -40
0 -39 -1 -40 -35 -40 -34 0 -35 1 -35 40 0 39 -1 40 -35 40 -34 0 -35 -1 -35
-40 l0 -40 -40 0 -40 0 0 40 c0 39 -1 40 -35 40 l-35 0 0 70 0 70 -35 0 c-33
0 -35 -2 -35 -35 0 -33 -2 -35 -35 -35 -33 0 -35 2 -35 35 l0 35 -75 0 -75 0
0 35 c0 33 -2 35 -35 35 -33 0 -35 -2 -35 -35 0 -33 -2 -35 -35 -35 l-35 0 0
75 0 75 -35 0 -35 0 0 -75z m720 -435 l0 -70 -35 0 -35 0 0 70 0 70 35 0 35 0
0 -70z m70 -180 c0 -39 -1 -40 -35 -40 -34 0 -35 1 -35 40 0 39 1 40 35 40 34
0 35 -1 35 -40z"/>
<path d="M1730 1060 l0 -70 40 0 40 0 0 -110 0 -110 35 0 c33 0 35 -2 35 -35
0 -33 2 -35 35 -35 l35 0 0 -70 0 -70 -35 0 c-34 0 -35 -1 -35 -40 l0 -40 70
0 70 0 0 -35 c0 -34 1 -35 40 -35 l40 0 0 75 0 75 -40 0 c-39 0 -40 1 -40 35
0 34 1 35 40 35 39 0 40 1 40 35 l0 35 -75 0 -75 0 0 110 0 110 -35 0 c-33 0
-35 2 -35 35 0 33 -2 35 -35 35 l-35 0 0 70 0 70 -40 0 -40 0 0 -70z"/>
<path d="M3030 1025 c0 -33 2 -35 35 -35 33 0 35 2 35 35 0 33 -2 35 -35 35
-33 0 -35 -2 -35 -35z"/>
<path d="M2170 955 c0 -33 2 -35 35 -35 33 0 35 2 35 35 0 33 -2 35 -35 35
-33 0 -35 -2 -35 -35z"/>
<path d="M2600 885 c0 -33 2 -35 35 -35 33 0 35 2 35 35 0 33 -2 35 -35 35
-33 0 -35 -2 -35 -35z"/>
<path d="M2170 630 l0 -70 35 0 35 0 0 70 0 70 -35 0 -35 0 0 -70z"/>
<path d="M3030 735 c0 -33 2 -35 35 -35 33 0 35 2 35 35 0 33 -2 35 -35 35
-33 0 -35 -2 -35 -35z"/>
<path d="M1450 3190 c0 -39 1 -40 35 -40 34 0 35 1 35 40 0 39 -1 40 -35 40
-34 0 -35 -1 -35 -40z"/>
<path d="M1590 3190 l0 -40 70 0 70 0 0 40 0 40 -70 0 -70 0 0 -40z"/>
<path d="M2380 3190 l0 -40 40 0 c39 0 40 -1 40 -35 0 -33 2 -35 35 -35 33 0
35 2 35 35 0 33 2 35 35 35 34 0 35 1 35 40 l0 40 -110 0 -110 0 0 -40z"/>
<path d="M580 2970 l0 -250 250 0 250 0 0 250 0 250 -250 0 -250 0 0 -250z
m430 3 l0 -183 -180 0 -180 0 0 178 c0 98 2 181 4 183 2 2 83 4 180 4 l176 0
0 -182z"/>
<path d="M720 2975 l0 -105 110 0 110 0 0 105 0 105 -110 0 -110 0 0 -105z"/>
<path d="M3032 2973 l3 -248 253 -3 252 -2 0 250 0 250 -255 0 -255 0 2 -247z
m436 -1 l2 -182 -182 2 -183 3 -2 180 -2 180 182 0 182 0 3 -183z"/>
<path d="M3180 2975 l0 -105 105 0 105 0 0 105 0 105 -105 0 -105 0 0 -105z"/>
<path d="M3100 2615 l0 -35 -70 0 -70 0 0 -40 c0 -39 1 -40 35 -40 33 0 35 -2
35 -35 0 -33 2 -35 35 -35 l35 0 0 75 0 75 40 0 c39 0 40 1 40 35 0 34 -1 35
-40 35 -39 0 -40 -1 -40 -35z"/>
<path d="M3250 2575 l0 -75 -35 0 c-33 0 -35 -2 -35 -35 0 -33 2 -35 35 -35
33 0 35 2 35 35 0 33 2 35 35 35 33 0 35 -2 35 -35 0 -33 2 -35 35 -35 33 0
35 2 35 35 0 34 1 35 40 35 39 0 40 -1 40 -35 0 -33 2 -35 35 -35 33 0 35 2
35 35 0 33 -2 35 -35 35 -34 0 -35 1 -35 40 0 39 1 40 35 40 33 0 35 2 35 35
l0 35 -145 0 -145 0 0 -75z"/>
<path d="M580 1675 l0 -35 70 0 70 0 0 -35 c0 -34 1 -35 40 -35 39 0 40 1 40
35 0 34 -1 35 -40 35 -39 0 -40 1 -40 35 l0 35 -70 0 -70 0 0 -35z"/>
<path d="M870 1455 c0 -33 2 -35 35 -35 33 0 35 2 35 35 0 33 -2 35 -35 35
-33 0 -35 -2 -35 -35z"/>
<path d="M650 1385 l0 -35 75 0 75 0 0 35 0 35 -75 0 -75 0 0 -35z"/>
<path d="M580 520 l0 -250 250 0 250 0 0 250 0 250 -250 0 -250 0 0 -250z
m430 0 l0 -180 -180 0 -180 0 0 180 0 180 180 0 180 0 0 -180z"/>
<path d="M720 520 l0 -110 110 0 110 0 0 110 0 110 -110 0 -110 0 0 -110z"/>
<path d="M3030 375 l0 -105 35 0 c33 0 35 2 35 35 0 34 1 35 40 35 39 0 40 -1
40 -35 l0 -35 70 0 70 0 0 35 c0 33 -2 35 -35 35 -33 0 -35 2 -35 35 0 33 -2
35 -35 35 -33 0 -35 2 -35 35 l0 35 -75 0 -75 0 0 -105z"/>
<path d="M3390 305 c0 -34 1 -35 40 -35 39 0 40 1 40 35 0 34 -1 35 -40 35
-39 0 -40 -1 -40 -35z"/>
</g>
</svg>
